<svg width="32" height="32" viewBox="0 0 32 32" fill="none" xmlns="http://www.w3.org/2000/svg">
<path d="M16 23.5C20.1421 23.5 23.5 20.1421 23.5 16C23.5 11.8579 20.1421 8.5 16 8.5C11.8579 8.5 8.5 11.8579 8.5 16C8.5 20.1421 11.8579 23.5 16 23.5Z" stroke="#617080"/>
<path d="M15.8819 12.5C14.5111 12.5 13.5389 13.4431 13.5 14.7458L14.6083 14.8528C14.6278 14.1236 15.1236 13.6083 15.8431 13.6083C16.4847 13.6083 16.9319 14.0167 16.9319 14.6097C16.9319 15.7472 15.1819 15.6597 15.1819 17.4292H16.2708C16.2708 16.3403 18.0986 16.3208 18.0986 14.4931C18.0986 13.3264 17.175 12.5 15.8819 12.5ZM15.7556 19.5C16.1833 19.5 16.5042 19.1694 16.5042 18.7611C16.5042 18.3431 16.1833 18.0222 15.7556 18.0222C15.3375 18.0222 15.0069 18.3431 15.0069 18.7611C15.0069 19.1694 15.3375 19.5 15.7556 19.5Z" fill="#617080"/>
</svg>
