<svg width="32" height="32" viewBox="0 0 32 32" fill="none" xmlns="http://www.w3.org/2000/svg">
<path d="M21 11.5H11C10.1716 11.5 9.5 12.1716 9.5 13V20C9.5 20.8284 10.1716 21.5 11 21.5H21C21.8284 21.5 22.5 20.8284 22.5 20V13C22.5 12.1716 21.8284 11.5 21 11.5Z" stroke="#617080"/>
<path d="M18 9.5H14C13.1716 9.5 12.5 10.1716 12.5 11V11.5H19.5V11C19.5 10.1716 18.8284 9.5 18 9.5Z" stroke="#617080"/>
<path fill-rule="evenodd" clip-rule="evenodd" d="M13 16C13 17.6569 14.3431 19 16 19C17.6569 19 19 17.6569 19 16H18C18 17.1046 17.1046 18 16 18C14.8954 18 14 17.1046 14 16H13Z" fill="#617080"/>
</svg>
