<svg width="20" height="20" viewBox="0 0 20 20" fill="none" xmlns="http://www.w3.org/2000/svg">
<circle r="10" transform="matrix(1 0 0 -1 10 10)" fill="#FFF8EB"/>
<mask id="mask0" mask-type="alpha" maskUnits="userSpaceOnUse" x="0" y="0" width="20" height="20">
<circle r="10" transform="matrix(1 0 0 -1 10 10)" fill="#FFF8EB"/>
</mask>
<g mask="url(#mask0)">
<path fill-rule="evenodd" clip-rule="evenodd" d="M5.88484 12.1945L3.6558 9.94224C3.27704 9.55954 2.66295 9.55954 2.28407 9.94224C1.90531 10.3249 1.90531 10.9454 2.28407 11.3282L5.19897 14.2735C5.57773 14.6562 6.19195 14.6562 6.57071 14.2735L9.31429 11.5012L7.94268 10.1152L5.88484 12.1945Z" fill="#1BAC94"/>
<path fill-rule="evenodd" clip-rule="evenodd" d="M14.2865 7.86366L10.0002 12.1945L5.71342 7.86317C5.33454 7.48034 4.72045 7.48034 4.34169 7.86317C3.96293 8.24587 3.96293 8.86635 4.34169 9.24917L9.31431 14.2735C9.69307 14.6562 10.3072 14.6562 10.686 14.2735L15.6582 9.24966C16.0369 8.86684 16.0369 8.24636 15.6582 7.86366C15.2793 7.48096 14.6652 7.48096 14.2865 7.86366Z" fill="#F1AE21"/>
<path fill-rule="evenodd" clip-rule="evenodd" d="M17.7159 11.3288L14.8015 14.2735C14.4227 14.6562 13.8087 14.6562 13.4299 14.2735L6.39943 7.16995C6.02067 6.78725 6.02067 6.16677 6.39943 5.78407C6.77831 5.40124 7.3924 5.40124 7.77116 5.78407L14.1156 12.1945L16.3442 9.94281C16.7231 9.56011 17.3372 9.56011 17.7159 9.94281C18.0947 10.3256 18.0947 10.9461 17.7159 11.3288Z" fill="#E76450"/>
<path fill-rule="evenodd" clip-rule="evenodd" d="M13.6003 5.7844C13.2215 5.4017 12.6074 5.4017 12.2285 5.7844L7.94226 10.1153L9.31399 11.5013L13.6003 7.1704C13.979 6.78758 13.979 6.1671 13.6003 5.7844Z" fill="#1BAC94"/>
</g>
</svg>
