<svg width="32" height="32" viewBox="0 0 32 32" fill="none" xmlns="http://www.w3.org/2000/svg">
<circle r="16" transform="matrix(1 0 0 -1 16 16)" fill="#FE5C5C"/>
<mask id="mask0" mask-type="alpha" maskUnits="userSpaceOnUse" x="0" y="0" width="32" height="32">
<circle r="16" transform="matrix(1 0 0 -1 16 16)" fill="#FE5C5C"/>
</mask>
<g mask="url(#mask0)">
<path opacity="0.5" d="M20.7714 49.8221L23.0657 10.5343L-16.6414 17.7711C-16.841 17.8075 -16.9082 18.0599 -16.753 18.1907L20.7714 49.8221Z" fill="#BD0909"/>
<g filter="url(#filter0_f)">
<path fill-rule="evenodd" clip-rule="evenodd" d="M17.5947 15.2907V6.3999L10.6379 19.5406C10.5421 19.7215 10.7022 19.9316 10.902 19.8872L14.403 19.1092V27.9999L21.3599 14.8592C21.4556 14.6783 21.2955 14.4683 21.0957 14.5127L17.5947 15.2907Z" fill="#CD4037"/>
</g>
<path d="M14.4045 14.3999V26.3999L21.3613 13.2592C21.4571 13.0783 21.297 12.8682 21.0972 12.9126L14.4045 14.3999Z" fill="#FCEDEB"/>
<path d="M17.5955 16.7998V4.7998L10.6387 17.9405C10.5429 18.1214 10.703 18.3315 10.9028 18.2871L17.5955 16.7998Z" fill="white"/>
</g>
<defs>
<filter id="filter0_f" x="9.60938" y="5.3999" width="12.779" height="23.6" filterUnits="userSpaceOnUse" color-interpolation-filters="sRGB">
<feFlood flood-opacity="0" result="BackgroundImageFix"/>
<feBlend mode="normal" in="SourceGraphic" in2="BackgroundImageFix" result="shape"/>
<feGaussianBlur stdDeviation="0.5" result="effect1_foregroundBlur"/>
</filter>
</defs>
</svg>
