<svg width="32" height="32" viewBox="0 0 32 32" fill="none" xmlns="http://www.w3.org/2000/svg">
<rect x="8" y="11" width="1" height="1" rx="0.5" fill="#617080"/>
<rect x="8" y="13" width="6" height="1" rx="0.5" fill="#617080"/>
<rect x="8" y="15" width="6" height="1" rx="0.5" fill="#617080"/>
<path d="M24 9.5H8C7.17157 9.5 6.5 10.1716 6.5 11V22C6.5 22.8284 7.17157 23.5 8 23.5H24C24.8284 23.5 25.5 22.8284 25.5 22V11C25.5 10.1716 24.8284 9.5 24 9.5Z" stroke="#617080"/>
<path d="M23 16.5H17C16.7239 16.5 16.5 16.7239 16.5 17V21C16.5 21.2761 16.7239 21.5 17 21.5H23C23.2761 21.5 23.5 21.2761 23.5 21V17C23.5 16.7239 23.2761 16.5 23 16.5Z" stroke="#617080"/>
</svg>
