<svg width="20" height="20" viewBox="0 0 20 20" fill="none" xmlns="http://www.w3.org/2000/svg">
<circle r="10" transform="matrix(1 0 0 -1 10 10)" fill="url(#paint0_linear)"/>
<mask id="mask0" mask-type="alpha" maskUnits="userSpaceOnUse" x="0" y="0" width="20" height="20">
<circle r="10" transform="matrix(1 0 0 -1 10 10)" fill="#167B6A"/>
</mask>
<g mask="url(#mask0)">
<g opacity="0.5">
<path fill-rule="evenodd" clip-rule="evenodd" d="M9.53085 2.6576C9.67964 2.56483 9.84974 2.52202 10.0182 2.52914C10.1626 2.53525 10.3058 2.57807 10.4334 2.6576C13.5564 4.60458 15.6252 8.00419 15.6252 11.8724C15.6252 13.5647 15.2293 15.1673 14.5224 16.5977C15.664 15.662 17.0123 14.9511 18.5218 14.5466C18.7553 14.484 18.9892 14.4298 19.2231 14.3836C22.7312 13.6907 26.2455 14.8209 28.7664 17.1766C28.8945 17.2963 28.9799 17.4495 29.0166 17.6141C29.0481 17.7551 29.0438 17.9046 29 18.0484C27.9276 21.5689 25.1793 24.4471 21.4429 25.4482C17.7064 26.4494 13.8872 25.331 11.1983 22.8183C11.0885 22.7157 11.01 22.5884 10.9668 22.4505C10.9163 22.2896 10.9136 22.1142 10.9647 21.9465C11.0987 21.5064 11.259 21.0764 11.444 20.6588C11.5116 20.5063 11.5825 20.3555 11.6567 20.2064C11.2705 20.5257 10.8619 20.8201 10.4334 21.0873C10.3059 21.1668 10.1626 21.2096 10.0182 21.2157C9.84974 21.2228 9.67964 21.18 9.53085 21.0873C9.14047 20.8439 8.76656 20.5778 8.41111 20.291C8.37666 20.2632 8.34238 20.2352 8.30828 20.207C8.38232 20.3559 8.45314 20.5065 8.52064 20.6588C8.70572 21.0764 8.86594 21.5064 8.99999 21.9465C9.05108 22.1142 9.04841 22.2896 8.99792 22.4505C8.95464 22.5884 8.87621 22.7157 8.76638 22.8183C6.07745 25.331 2.25824 26.4494 -1.4782 25.4482C-5.21464 24.4471 -7.96297 21.5689 -9.03531 18.0484C-9.07911 17.9046 -9.0834 17.7551 -9.05192 17.6141C-9.0152 17.4495 -8.92982 17.2963 -8.80171 17.1766C-6.28082 14.8209 -2.76654 13.6907 0.741628 14.3836C0.975505 14.4298 1.20936 14.484 1.44288 14.5466C2.95211 14.951 4.30013 15.6617 5.44159 16.5972C4.73485 15.1668 4.33903 13.5645 4.33903 11.8724C4.33903 11.6307 4.34711 11.3907 4.36303 11.1529C4.60175 7.58491 6.60301 4.48289 9.53085 2.6576Z" fill="#125247"/>
<path fill-rule="evenodd" clip-rule="evenodd" d="M9.53085 2.6576C9.67964 2.56483 9.84974 2.52202 10.0182 2.52914C10.1626 2.53525 10.3058 2.57807 10.4334 2.6576C13.5564 4.60458 15.6252 8.00419 15.6252 11.8724C15.6252 13.5647 15.2293 15.1673 14.5224 16.5977C15.664 15.662 17.0123 14.9511 18.5218 14.5466C18.7553 14.484 18.9892 14.4298 19.2231 14.3836C22.7312 13.6907 26.2455 14.8209 28.7664 17.1766C28.8945 17.2963 28.9799 17.4495 29.0166 17.6141C29.0481 17.7551 29.0438 17.9046 29 18.0484C27.9276 21.5689 25.1793 24.4471 21.4429 25.4482C17.7064 26.4494 13.8872 25.331 11.1983 22.8183C11.0885 22.7157 11.01 22.5884 10.9668 22.4505C10.9163 22.2896 10.9136 22.1142 10.9647 21.9465C11.0987 21.5064 11.259 21.0764 11.444 20.6588C11.5116 20.5063 11.5825 20.3555 11.6567 20.2064C11.2705 20.5257 10.8619 20.8201 10.4334 21.0873C10.3059 21.1668 10.1626 21.2096 10.0182 21.2157C9.84974 21.2228 9.67964 21.18 9.53085 21.0873C9.14047 20.8439 8.76656 20.5778 8.41111 20.291C8.37666 20.2632 8.34238 20.2352 8.30828 20.207C8.38232 20.3559 8.45314 20.5065 8.52064 20.6588C8.70572 21.0764 8.86594 21.5064 8.99999 21.9465C9.05108 22.1142 9.04841 22.2896 8.99792 22.4505C8.95464 22.5884 8.87621 22.7157 8.76638 22.8183C6.07745 25.331 2.25824 26.4494 -1.4782 25.4482C-5.21464 24.4471 -7.96297 21.5689 -9.03531 18.0484C-9.07911 17.9046 -9.0834 17.7551 -9.05192 17.6141C-9.0152 17.4495 -8.92982 17.2963 -8.80171 17.1766C-6.28082 14.8209 -2.76654 13.6907 0.741628 14.3836C0.975505 14.4298 1.20936 14.484 1.44288 14.5466C2.95211 14.951 4.30013 15.6617 5.44159 16.5972C4.73485 15.1668 4.33903 13.5645 4.33903 11.8724C4.33903 11.6307 4.34711 11.3907 4.36303 11.1529C4.60175 7.58491 6.60301 4.48289 9.53085 2.6576Z" fill="#125247"/>
<path fill-rule="evenodd" clip-rule="evenodd" d="M9.53085 2.6576C9.67964 2.56483 9.84974 2.52202 10.0182 2.52914C10.1626 2.53525 10.3058 2.57807 10.4334 2.6576C13.5564 4.60458 15.6252 8.00419 15.6252 11.8724C15.6252 13.5647 15.2293 15.1673 14.5224 16.5977C15.664 15.662 17.0123 14.9511 18.5218 14.5466C18.7553 14.484 18.9892 14.4298 19.2231 14.3836C22.7312 13.6907 26.2455 14.8209 28.7664 17.1766C28.8945 17.2963 28.9799 17.4495 29.0166 17.6141C29.0481 17.7551 29.0438 17.9046 29 18.0484C27.9276 21.5689 25.1793 24.4471 21.4429 25.4482C17.7064 26.4494 13.8872 25.331 11.1983 22.8183C11.0885 22.7157 11.01 22.5884 10.9668 22.4505C10.9163 22.2896 10.9136 22.1142 10.9647 21.9465C11.0987 21.5064 11.259 21.0764 11.444 20.6588C11.5116 20.5063 11.5825 20.3555 11.6567 20.2064C11.2705 20.5257 10.8619 20.8201 10.4334 21.0873C10.3059 21.1668 10.1626 21.2096 10.0182 21.2157C9.84974 21.2228 9.67964 21.18 9.53085 21.0873C9.14047 20.8439 8.76656 20.5778 8.41111 20.291C8.37666 20.2632 8.34238 20.2352 8.30828 20.207C8.38232 20.3559 8.45314 20.5065 8.52064 20.6588C8.70572 21.0764 8.86594 21.5064 8.99999 21.9465C9.05108 22.1142 9.04841 22.2896 8.99792 22.4505C8.95464 22.5884 8.87621 22.7157 8.76638 22.8183C6.07745 25.331 2.25824 26.4494 -1.4782 25.4482C-5.21464 24.4471 -7.96297 21.5689 -9.03531 18.0484C-9.07911 17.9046 -9.0834 17.7551 -9.05192 17.6141C-9.0152 17.4495 -8.92982 17.2963 -8.80171 17.1766C-6.28082 14.8209 -2.76654 13.6907 0.741628 14.3836C0.975505 14.4298 1.20936 14.484 1.44288 14.5466C2.95211 14.951 4.30013 15.6617 5.44159 16.5972C4.73485 15.1668 4.33903 13.5645 4.33903 11.8724C4.33903 11.6307 4.34711 11.3907 4.36303 11.1529C4.60175 7.58491 6.60301 4.48289 9.53085 2.6576Z" fill="#125247"/>
</g>
<mask id="mask1" mask-type="alpha" maskUnits="userSpaceOnUse" x="3" y="1" width="14" height="15">
<circle r="6.875" transform="matrix(1 0 0 -1 9.99988 8.75006)" fill="#2E3A3C"/>
</mask>
<g mask="url(#mask1)">
<path fill-rule="evenodd" clip-rule="evenodd" d="M19.8549 11.5191C19.764 11.4202 19.6441 11.3485 19.508 11.3169C16.6528 10.6546 13.5733 11.4041 11.3948 13.5825C9.2164 15.761 8.46694 18.8405 9.12925 21.6957C9.16081 21.8318 9.2325 21.9517 9.33141 22.0426L19.8549 11.5191Z" fill="white"/>
<path fill-rule="evenodd" clip-rule="evenodd" d="M-0.161978 11.5191C-0.0711135 11.4202 0.0488146 11.3485 0.184878 11.3169C3.04008 10.6546 6.11962 11.4041 8.29804 13.5825C10.4765 15.761 11.2259 18.8405 10.5636 21.6957C10.5321 21.8318 10.4604 21.9517 10.3615 22.0426L-0.161978 11.5191Z" fill="#E9F7F4"/>
<path fill-rule="evenodd" clip-rule="evenodd" d="M9.77586 12.9848C9.90293 13.064 10.0638 13.064 10.1909 12.9848C11.6268 12.0895 12.578 10.5264 12.578 8.74779C12.578 6.96918 11.6268 5.40605 10.1909 4.51083C10.0638 4.43161 9.90293 4.43161 9.77586 4.51083C8.3399 5.40605 7.38867 6.96918 7.38867 8.74779C7.38867 10.5264 8.3399 12.0895 9.77586 12.9848Z" fill="#E9F7F4"/>
<path fill-rule="evenodd" clip-rule="evenodd" d="M9.99995 4.45177C9.92249 4.44849 9.84427 4.46818 9.77586 4.51083C8.3399 5.40605 7.38867 6.96918 7.38867 8.74779C7.38867 10.5264 8.3399 12.0895 9.77586 12.9848C9.84428 13.0274 9.92249 13.0471 9.99995 13.0438V4.45177Z" fill="white"/>
</g>
</g>
<defs>
<linearGradient id="paint0_linear" x1="10" y1="0" x2="10" y2="20" gradientUnits="userSpaceOnUse">
<stop stop-color="#167B6A"/>
<stop offset="1" stop-color="#1D8876"/>
</linearGradient>
</defs>
</svg>
