<svg width="32" height="32" viewBox="0 0 32 32" fill="none" xmlns="http://www.w3.org/2000/svg">
<path d="M20 10.5H11C10.7239 10.5 10.5 10.7239 10.5 11V22C10.5 22.2761 10.7239 22.5 11 22.5H20C20.2761 22.5 20.5 22.2761 20.5 22V11C20.5 10.7239 20.2761 10.5 20 10.5Z" stroke="#617080"/>
<path d="M22.1833 11.0515L21.2291 11.3505C20.9656 11.4331 20.8189 11.7136 20.9014 11.9771L24.1901 22.474C24.2727 22.7375 24.5532 22.8842 24.8167 22.8017L25.771 22.5027C26.0345 22.4201 26.1812 22.1396 26.0986 21.8761L22.81 11.3792C22.7274 11.1157 22.4469 10.969 22.1833 11.0515Z" stroke="#617080"/>
<rect x="13" y="15" width="5" height="1" fill="#617080"/>
<rect x="13" y="17" width="5" height="1" fill="#617080"/>
<rect x="13" y="13" width="2" height="1" fill="#617080"/>
</svg>
