<svg width="20" height="20" viewBox="0 0 20 20" fill="none" xmlns="http://www.w3.org/2000/svg">
<circle r="10" transform="matrix(1 0 0 -1 10 10)" fill="url(#paint0_linear)"/>
<mask id="mask0" mask-type="alpha" maskUnits="userSpaceOnUse" x="0" y="0" width="20" height="20">
<circle r="10" transform="matrix(1 0 0 -1 10 10)" fill="url(#paint1_linear)"/>
</mask>
<g mask="url(#mask0)">
</g>
<path d="M6.5 4.5H14.5C15.0523 4.5 15.5 4.94772 15.5 5.5V13.5C15.5 14.0523 15.0523 14.5 14.5 14.5H6.5V4.5Z" stroke="#617080"/>
<path d="M10 8L8.5 9.5L10 11" stroke="#617080"/>
<path d="M12 8L13.5 9.5L12 11" stroke="#617080"/>
<path d="M4.5 5.5C4.5 4.94772 4.94772 4.5 5.5 4.5H6.5V14.5H5.5C4.94772 14.5 4.5 14.0523 4.5 13.5V5.5Z" stroke="#617080"/>
<defs>
<linearGradient id="paint0_linear" x1="10" y1="0" x2="10" y2="20" gradientUnits="userSpaceOnUse">
<stop stop-color="#DCE1E6" stop-opacity="0.35"/>
<stop offset="1" stop-color="#DCE1E6" stop-opacity="0.56"/>
</linearGradient>
<linearGradient id="paint1_linear" x1="10" y1="0" x2="10" y2="20" gradientUnits="userSpaceOnUse">
<stop stop-color="#F0F2F5"/>
<stop offset="1" stop-color="#F0F2F5" stop-opacity="0"/>
</linearGradient>
</defs>
</svg>
