<svg width="32" height="32" viewBox="0 0 32 32" fill="none" xmlns="http://www.w3.org/2000/svg">
<path d="M12.5 22.9235V10.9336C12.5 10.6848 12.317 10.4739 12.0707 10.4387L6.07071 9.58153C5.76949 9.5385 5.5 9.77223 5.5 10.0765V22.0664C5.5 22.3152 5.68296 22.5261 5.92929 22.5613L11.9293 23.4185C12.2305 23.4615 12.5 23.2278 12.5 22.9235Z" stroke="#617080"/>
<path fill-rule="evenodd" clip-rule="evenodd" d="M11 12.7804L7 12.209V13.2192L11 13.7906V12.7804ZM12 13.9334L12.4297 13.9948L12.5711 13.0049L12 12.9233V13.9334ZM5.57111 12.0049L6 12.0662V13.0763L5.42969 12.9948L5.57111 12.0049Z" fill="#617080"/>
<path d="M19.5 22.9235V10.9336C19.5 10.6848 19.317 10.4739 19.0707 10.4387L13.0707 9.58153C12.7695 9.5385 12.5 9.77223 12.5 10.0765V22.0664C12.5 22.3152 12.683 22.5261 12.9293 22.5613L18.9293 23.4185C19.2305 23.4615 19.5 23.2278 19.5 22.9235Z" stroke="#617080"/>
<path d="M26.5 22.9235V10.9336C26.5 10.6848 26.317 10.4739 26.0707 10.4387L20.0707 9.58153C19.7695 9.5385 19.5 9.77223 19.5 10.0765V22.0664C19.5 22.3152 19.683 22.5261 19.9293 22.5613L25.9293 23.4185C26.2305 23.4615 26.5 23.2278 26.5 22.9235Z" stroke="#617080"/>
</svg>
