<svg width="32" height="32" viewBox="0 0 32 32" fill="none" xmlns="http://www.w3.org/2000/svg">
<path fill-rule="evenodd" clip-rule="evenodd" d="M11.7854 18.1829L11.2596 18.7142L8.69226 16.1201C8.25602 15.6794 7.54873 15.6794 7.11234 16.1201C6.67609 16.5609 6.67609 17.2756 7.11234 17.7165L10.4696 21.1087C10.9059 21.5495 11.6133 21.5495 12.0496 21.1087L13.3653 19.7793L11.7854 18.1829ZM14.9452 18.1829L15.2096 17.9157L13.6298 16.3194L13.3653 16.5866L14.9452 18.1829Z" fill="#617080"/>
<path fill-rule="evenodd" clip-rule="evenodd" d="M18.0786 16.6135L20.9366 13.7258C21.3728 13.285 22.0801 13.285 22.5165 13.7258C22.9527 14.1666 22.9527 14.8812 22.5165 15.3221L19.6585 18.2098L18.0786 16.6135ZM16.4987 18.2098L15.9997 18.714L11.0624 13.7252C10.626 13.2843 9.9187 13.2843 9.48246 13.7252C9.04621 14.166 9.04621 14.8807 9.48246 15.3216L15.2098 21.1085C15.646 21.5493 16.3533 21.5493 16.7897 21.1085L18.0786 19.8062L16.4987 18.2098Z" fill="#617080"/>
<path fill-rule="evenodd" clip-rule="evenodd" d="M21.5299 21.1086L24.8866 17.717C25.3228 17.2762 25.3228 16.5615 24.8866 16.1206C24.4503 15.6798 23.7431 15.6798 23.3067 16.1206L20.7399 18.7141L17.8486 15.7928L16.2688 17.3891L19.9501 21.1086C20.3863 21.5494 21.0936 21.5494 21.5299 21.1086ZM14.6889 15.7927L16.2687 14.1964L13.4325 11.3307C12.9963 10.8898 12.289 10.8898 11.8526 11.3307C11.4163 11.7715 11.4163 12.4861 11.8526 12.9269L14.6889 15.7927Z" fill="#617080"/>
<path fill-rule="evenodd" clip-rule="evenodd" d="M20.1466 11.3311C19.7104 10.8903 19.0031 10.8903 18.5667 11.3311L13.6299 16.3192L15.2098 17.9156L20.1466 12.9274C20.5829 12.4865 20.5829 11.7719 20.1466 11.3311Z" fill="#617080"/>
</svg>
